<svg 
 xmlns="http://www.w3.org/2000/svg"
 xmlns:xlink="http://www.w3.org/1999/xlink"
 width="35px" height="35px">
<path fill-rule="evenodd"  fill="rgb(43, 64, 110)"
 d="M17.500,-0.000 C27.165,-0.000 35.000,7.835 35.000,17.500 C35.000,27.165 27.165,34.1000 17.500,34.1000 C7.835,34.1000 -0.000,27.165 -0.000,17.500 C-0.000,7.835 7.835,-0.000 17.500,-0.000 Z"/>
<path fill-rule="evenodd"  fill="rgb(255, 255, 255)"
 d="M21.611,18.006 L18.595,18.006 L18.595,28.998 L14.124,28.998 L14.124,18.006 L11.998,18.006 L11.998,14.123 L14.124,14.123 L14.124,11.611 C14.124,9.814 14.959,6.999 18.635,6.999 L21.946,7.014 L21.946,10.784 L19.544,10.784 C19.149,10.784 18.595,10.984 18.595,11.841 L18.595,14.127 L22.001,14.127 L21.611,18.006 Z"/>
</svg>