<svg 
 xmlns="http://www.w3.org/2000/svg"
 xmlns:xlink="http://www.w3.org/1999/xlink"
 width="35px" height="35px">
<path fill-rule="evenodd"  fill="rgb(204, 55, 67)"
 d="M17.500,-0.000 C27.165,-0.000 35.000,7.835 35.000,17.500 C35.000,27.165 27.165,34.1000 17.500,34.1000 C7.835,34.1000 -0.000,27.165 -0.000,17.500 C-0.000,7.835 7.835,-0.000 17.500,-0.000 Z"/>
<path fill-rule="evenodd"  fill-opacity="0.502" fill="rgb(0, 0, 0)"
 d="M15.098,14.748 L20.508,18.268 L21.218,17.869 L15.098,14.748 Z"/>
<path fill-rule="evenodd"  fill="rgb(255, 255, 255)"
 d="M28.765,22.545 C28.765,22.545 28.540,24.114 27.850,24.804 C26.976,25.711 25.996,25.715 25.547,25.768 C22.330,25.998 17.499,26.005 17.499,26.005 C17.499,26.005 11.521,25.951 9.682,25.777 C9.170,25.682 8.022,25.711 7.147,24.804 C6.457,24.114 6.233,22.545 6.233,22.545 C6.233,22.545 6.003,20.704 6.003,18.862 L6.003,17.136 C6.003,15.294 6.233,13.453 6.233,13.453 C6.233,13.453 6.457,11.884 7.147,11.194 C8.022,10.287 9.001,10.283 9.450,10.230 C12.668,9.1000 17.494,9.1000 17.494,9.1000 L17.504,9.1000 C17.504,9.1000 22.330,9.1000 25.547,10.230 C25.996,10.283 26.976,10.287 27.850,11.194 C28.540,11.884 28.765,13.453 28.765,13.453 C28.765,13.453 28.994,15.294 28.994,17.136 L28.994,18.862 C28.994,20.704 28.765,22.545 28.765,22.545 ZM15.098,14.748 L15.098,21.157 L21.207,17.888 L15.098,14.748 Z"/>
</svg>